#!OML:ASF F:\VICON\USERDATA\INSTALL\rory3\rory3.ASF
:FULLY-SPECIFIED
:DEGREES
44
root 0.6262074663921904 17.95202541051427 14.22705505395809 -1.4426670699242798 -3.383695660588602 -4.059211636195217
lfemur -21.552656691873516 -3.34466526086175 -17.243899791588667
ltibia 24.94096332887571
lfoot -4.1681620307192695 -2.0276295195117355
ltoes -1.8117626054111677
rfemur 0.6861586449763699 3.2980134639782763 27.157329608912512
rtibia 35.6737641849164
rfoot -7.384680217822757 1.5559727186043704
rtoes -1.5591237389383976
lowerback 8.896205768365604 2.3897355910104436 4.2443715440984615
upperback 0.0324354888086289 3.822755074086803 1.303266423196596
thorax -4.821965402344674 1.8565916391871546 -1.6806548932518708
lowerneck -16.65926645214184 -2.8428402458250996 -2.930745088359955
upperneck 22.262721581530347 -3.5192944554616 1.0023861295825935
head 9.839991182297126 -1.7042891413399452 0.30330509659179394
lclavicle -2.7991962212644613e-15 -4.1734935616251457e-16
lhumerus -38.621274240326706 9.227058762439416 80.75504483393485
lradius 16.859138073275723
lwrist -1.2898114913523395
lhand -24.946260026436455 25.037557258958305
lfingers 7.1250199999999975
lthumb 1.6776592183686705 55.07779525553101
rclavicle -2.7998799483863267e-15 -4.1779663607778103e-16
rhumerus -25.800045741377783 -15.66931167852886 -80.61405564595525
rradius 27.476326693988973
rwrist 4.590561979344336
rhand -17.80374818917116 23.136916150533168
rfingers 7.1250199999999975
rthumb 8.142986206640343 -6.492228358720411
45
root 0.7028466844163768 18.025693190900245 14.912740087207688 -2.2171711534554035 -2.646153092109153 -2.4306653058420973
lfemur -18.780447198793844 -3.1571562887346385 -20.20404140724629
ltibia 27.215958422898495
lfoot -4.035726945133471 -3.1252820134121766
ltoes -2.3879021013247668
rfemur -3.857748434635228 1.407817261169031 24.807829975184866
rtibia 43.93133943391764
rfoot 3.8691275308756232 3.2118838201195707
rtoes 5.691458957518673
lowerback 9.277865532639868 2.092098724734391 2.873570586842906
upperback 0.019253198468711707 3.30646598643226 0.9250354999279229
thorax -5.062114351033003 1.5961589937705782 -1.277835830572319
lowerneck -16.5293355107697 -2.8545787821176614 -2.9949381659341094
upperneck 22.19265492173525 -3.5470289726386968 1.189594687530338
head 9.773186178975939 -1.7046501193990653 0.3971887285638831
lclavicle -2.797928640077567e-15 -4.165046932844202e-16
lhumerus -38.308343428781804 9.237890330533794 80.6169689875384
lradius 17.51951926179487
lwrist 0.32788140320719084
lhand -24.670180164455818 24.800447690895147
lfingers 7.1250199999999975
lthumb 1.9824722460444346 54.768581857896976
rclavicle -2.799267910076205e-15 -4.1738845892297456e-16
rhumerus -26.525599905353154 -17.013560855934465 -80.05257769671367
rradius 26.681381412936876
rwrist 5.631295527769814
rhand -17.559401312482308 22.782962410150475
rfingers 7.1250199999999975
rthumb 8.35324262155855 -6.904424127271642
46
root 0.7777502911295483 18.07854797878964 15.804256521468005 -2.638728013409109 -2.6539634837267974 -1.2250412083915867
lfemur -15.684466167520354 -3.1115909229547394 -22.287157078949697
ltibia 27.58968143683356
lfoot -4.692061798986813 -2.439702785849466
ltoes -1.1754088064980515
rfemur -9.46052050785151 0.3281525966643333 23.162979308675816
rtibia 51.881048515715776
rfoot 12.696222222630242 0.8995090927979383
rtoes 14.723892807318174
lowerback 9.595323352458955 1.8948966974828196 1.585233790869572
upperback 0.13834010837171457 2.8472103907311634 0.7047849763811601
thorax -5.175865449754688 1.3930818439529271 -0.7276888670267546
lowerneck -16.523169616920256 -2.838875538121451 -3.062679070060444
upperneck 22.15370610012022 -3.534962664886699 1.3075314052817473
head 9.741897924432168 -1.696655365348362 0.46142397076098984
lclavicle -2.7978157935961803e-15 -4.1643125550571217e-16
lhumerus -37.23657927961013 7.794333199849714 81.24996222328784
lradius 18.870934264510577
lwrist 3.290465142240027
lhand -25.424235215304215 23.986862150046754
lfingers 7.1250199999999975
lthumb 1.2672803890462698 54.05710458422287
rclavicle -2.799170358743846e-15 -4.1732335468436727e-16
rhumerus -27.010274747154675 -17.79038331288259 -79.71160033996256
rradius 25.9750096606075
rwrist 6.364603827235657
rhand -17.258282685885693 22.68825273592161
rfingers 7.1250199999999975
rthumb 8.612931175514303 -7.0074004172323585
47
root 0.8191004901840402 18.139615222104762 16.717853259172085 -2.9986639628867593 -2.4580165254696102 -0.12077660258672096
lfemur -12.304482031594464 -3.416277023264014 -24.074829914215147
ltibia 26.95760002852324
lfoot -4.308836754531014 -1.697294274143533
ltoes -1.11994730870969
rfemur -14.692815013909415 -0.5509191842260419 22.294865996250238
rtibia 57.011273858557544
rfoot 11.201313824594875 -4.179241414484892
rtoes 14.736889513675994
lowerback 9.777728021029674 1.5181305767597641 0.45736233110844204
upperback 0.31458200883358967 2.167106841865574 0.579929323948823
thorax -5.149211622331315 1.070889375186022 -0.09694248416016504
lowerneck -16.54567493342079 -2.818704198224711 -3.2023643984357073
upperneck 22.148258189240433 -3.5046734162248496 1.4347472932856618
head 9.712729437430598 -1.6830826416626892 0.5313138783265052
lclavicle -2.79658028454345e-15 -4.156067123527028e-16
lhumerus -35.60358032448442 6.1273705629433 81.87477426952623
lradius 19.893601641161503
lwrist 3.557346995128853
lhand -25.859407523814944 24.360057978768456
lfingers 7.1250199999999975
lthumb 0.6759462317678605 54.43949337248296
rclavicle -2.7983615209037748e-15 -4.16783845873721e-16
rhumerus -27.326321014914928 -18.224019961333962 -79.51944077417568
rradius 25.37996289447167
rwrist 6.754298954538397
rhand -17.034040758235125 22.467030940790522
rfingers 7.1250199999999975
rthumb 8.93708393206947 -7.1839512111812915
48
root 0.8369198626887995 18.149347455303634 17.862397193189967 -3.142760952148373 -1.7163299749759624 0.38353807824018826
lfemur -9.307621350380549 -3.7435665200036397 -25.136338513694852
ltibia 26.416146382307527
lfoot -3.9167050447715854 -1.2194226032136894
ltoes -0.8663936058972954
rfemur -19.485538179453194 -1.2883010145177112 22.333287531763972
rtibia 58.97211341145478
rfoot 4.111405867326363 -8.96577890039032
rtoes 10.871982546124999
lowerback 9.837741659405218 0.9334595346035719 -0.06781401124145114
upperback 0.40973947005744005 1.2997560836771473 0.6179207134802498
thorax -5.101714204551816 0.6625852909154634 0.48847347031951244
lowerneck -16.54136809668915 -2.787852145001896 -3.3668224776314557
upperneck 22.24722469095229 -3.4447839312096766 1.3710049258924806
head 9.758694984192765 -1.666171848104316 0.5308024755217697
lclavicle -2.7975056252584864e-15 -4.1622624906766206e-16
lhumerus -33.515683843976625 4.355117173341416 82.36686786663417
lradius 21.011278122183782
lwrist 3.4202981388461113
lhand -26.21123625582184 23.97169835690199
lfingers 7.1250199999999975
lthumb 0.32962244874344493 54.143960670967026
rclavicle -2.79895833465045e-15 -4.1718192337706227e-16
rhumerus -27.831282816842858 -18.68796197983071 -79.24538165694753
rradius 25.098378697349375
rwrist 6.893324257496853
rhand -16.841803381796478 22.12302590608864
rfingers 7.1250199999999975
rthumb 9.04472054107155 -7.516575791127878
49
root 0.8378379198658443 18.11943815032274 19.032061891792967 -3.1242687663501467 -0.646087910160541 0.9539600143064577
lfemur -6.73625606466005 -4.0974335762514045 -26.002423302420674
ltibia 26.238570577125202
lfoot -3.368522642971902 -1.3978610331011474
ltoes -0.9616500512397224
rfemur -23.18443958391493 -1.669226456903461 22.31353468668973
rtibia 57.52477414801335
rfoot -1.0087465940871123 -10.798363751713788
rtoes 8.857924006594033
lowerback 9.912200655825451 0.32477611132162376 -0.6642191624026368
upperback 0.4358171165144873 0.40243034936484623 0.7046225749916453
thorax -5.082992981796172 0.18349505799538174 1.1669272157270616
lowerneck -16.53027175986897 -2.779234188216626 -3.5905275464120385
upperneck 22.256061808651225 -3.4083678361415486 1.367241700615564
head 9.74425101915126 -1.6539945351685172 0.5589751429025004
lclavicle -2.7977276710214682e-15 -4.163727265666899e-16
lhumerus -31.451275203739577 2.047143621094336 82.78523821992263
lradius 22.35957538614053
lwrist 3.2750782772016764
lhand -26.600555842929598 23.924550001383043
lfingers 7.1250199999999975
lthumb 0.1109664115242347 54.230546969723335
rclavicle -2.798645406076587e-15 -4.16973241372318e-16
rhumerus -28.46646877250805 -18.708100484079765 -79.03892783429255
rradius 25.163603069491284
rwrist 6.138248387478232
rhand -16.771653893586873 21.921753838547726
rfingers 7.1250199999999975
rthumb 9.155342600298917 -7.589726703598764
50
root 0.8298977801836862 18.046121411563632 20.051555940955836 -2.8596074763800474 0.34412806622684755 1.0617380412076183
lfemur -4.342185964485686 -4.129689675656298 -26.357182367794675
ltibia 26.344098594862427
lfoot -2.7892211611274114 -2.0912807772693
ltoes -2.8687339999285215
rfemur -26.035386379273056 -1.444818134717794 22.420586096256717
rtibia 53.18233830090898
rfoot -3.485332580200331 -11.157634325822652
rtoes 5.533675888422083
lowerback 10.021901983313988 -0.19627817019283111 -0.9964364629135181
upperback 0.4203394862262438 -0.37350155581115585 0.8638369539839007
thorax -5.070146868867546 -0.20895413655849804 1.8421802746363563
lowerneck -16.600277888935597 -2.795965494918945 -3.874081308021268
upperneck 22.223178796785604 -3.398322611342163 1.4335292009369383
head 9.729631446147225 -1.6512204637420798 0.6191354470854923
lclavicle -2.7986232141433613e-15 -4.1696712956928005e-16
lhumerus -29.127185824657637 -0.3460843307450221 83.01246250484739
lradius 24.07892750941083
lwrist 4.333707954382245
lhand -27.12812967392486 23.923328795912187
lfingers 7.1250199999999975
lthumb -0.38821844115689086 54.1025800845123
rclavicle -2.7966520631992793e-15 -4.156436064175317e-16
rhumerus -29.039383565560886 -18.259524679229198 -78.92796611822438
rradius 25.335511029694292
rwrist 5.231959814109576
rhand -16.844064953144706 21.942014446221872
rfingers 7.1250199999999975
rthumb 9.070157141156054 -7.8110435633108235
51
root 0.8025175748018061 17.951977710121973 20.97511601838287 -2.51322146588879 1.137968045764218 1.688282872141019
lfemur -1.5780299471641577 -3.8898955598404896 -27.170220675436155
ltibia 25.498068178025523
lfoot -2.0276243217033705 -2.786960761393468
ltoes -3.8135862288517606
rfemur -27.65901002750175 -0.7095549370471108 21.896611444602776
rtibia 46.36603941770056
rfoot -3.615076961774885 -11.68029005394527
rtoes 2.671490656492562
lowerback 10.047949751572714 -0.5608105027999021 -1.846146316163585
upperback 0.44499686357707513 -0.9827069768902392 0.8984458859240193
thorax -4.996818394838748 -0.4856062065266088 2.586857417451484
lowerneck -16.68792608289983 -2.801644475173072 -4.074317217930771
upperneck 22.008696571637707 -3.3876375800336365 1.5035456922690043
head 9.659264706371303 -1.6458296240206947 0.6697411287999074
lclavicle -2.7998701070948583e-15 -4.1779843374697165e-16
lhumerus -26.811278642245075 -2.5986952809329438 83.0143379846619
lradius 25.852836156804365
lwrist 5.523354861672196
lhand -27.73135474356688 23.874848471084647
lfingers 7.1250199999999975
lthumb -1.0781349013781782 54.00947997536856
rclavicle -2.796768759365364e-15 -4.1572143309121315e-16
rhumerus -29.490081376558248 -18.10059504885753 -78.7430921539202
rradius 25.153849727972652
rwrist 4.794124536737327
rhand -17.01236131101889 22.112310181517685
rfingers 7.1250199999999975
rthumb 8.994649831098421 -7.460238375330991
